<?xml version="1.0" encoding="utf-8"?>
<!-- Generator: Adobe Illustrator 23.0.1, SVG Export Plug-In . SVG Version: 6.00 Build 0)  -->
<svg version="1.1" xmlns="http://www.w3.org/2000/svg" xmlns:xlink="http://www.w3.org/1999/xlink" x="0px" y="0px"
	 viewBox="0 0 24 24" style="enable-background:new 0 0 24 24;" xml:space="preserve">
<style type="text/css">
	.st0{fill:#FFFFFF;stroke:#000000;stroke-width:1.5;stroke-miterlimit:10;}
	.st1{fill:none;stroke:#000000;stroke-width:1.5;stroke-miterlimit:10;}
</style>
<g id="Layer_1">
	<g>
		<ellipse cx="12" cy="4" rx="7.25" ry="1.92"/>
		<path d="M12,2.83c3.27,0,5.46,0.67,6.26,1.17c-0.8,0.5-2.99,1.17-6.26,1.17S6.54,4.5,5.74,4C6.54,3.5,8.73,2.83,12,2.83 M12,1.33
			C7.58,1.33,4,2.53,4,4s3.58,2.67,8,2.67S20,5.47,20,4S16.42,1.33,12,1.33L12,1.33z"/>
	</g>
	<path class="st0" d="M19.25,20.13c0,1.33-3.24,2.42-7.25,2.42s-7.25-1.09-7.25-2.42"/>
	<g>
		<line class="st1" x1="4.75" y1="4.25" x2="4.75" y2="20.25"/>
	</g>
	<g>
		<line class="st1" x1="19.25" y1="20.25" x2="19.25" y2="4.25"/>
	</g>
</g>
<g id="Layer_2">
</g>
</svg>
