<?xml version="1.0" encoding="utf-8"?>
<!-- Generator: Adobe Illustrator 23.0.1, SVG Export Plug-In . SVG Version: 6.00 Build 0)  -->
<svg version="1.1" id="Layer_1" xmlns="http://www.w3.org/2000/svg" xmlns:xlink="http://www.w3.org/1999/xlink" x="0px" y="0px"
	 viewBox="0 0 24 24" style="enable-background:new 0 0 24 24;" xml:space="preserve">
<style type="text/css">
	.st0{fill-rule:evenodd;clip-rule:evenodd;fill:#181616;}
</style>
<path class="st0" d="M12,5c-3.96,0-7.18,3.21-7.18,7.18c0,3.17,2.06,5.86,4.91,6.81c0.36,0.07,0.49-0.16,0.49-0.35
	c0-0.17-0.01-0.62-0.01-1.22c-2,0.43-2.42-0.96-2.42-0.96C7.47,15.63,7,15.41,7,15.41c-0.65-0.45,0.05-0.44,0.05-0.44
	c0.72,0.05,1.1,0.74,1.1,0.74c0.64,1.1,1.68,0.78,2.09,0.6c0.07-0.46,0.25-0.78,0.46-0.96c-1.59-0.18-3.27-0.8-3.27-3.55
	c0-0.78,0.28-1.42,0.74-1.93c-0.07-0.18-0.32-0.91,0.07-1.9c0,0,0.6-0.19,1.97,0.74c0.57-0.16,1.19-0.24,1.8-0.24
	c0.61,0,1.22,0.08,1.8,0.24c1.37-0.93,1.97-0.74,1.97-0.74c0.39,0.99,0.15,1.72,0.07,1.9c0.46,0.5,0.74,1.14,0.74,1.93
	c0,2.76-1.68,3.36-3.28,3.54c0.26,0.22,0.49,0.66,0.49,1.33c0,0.96-0.01,1.73-0.01,1.97c0,0.19,0.13,0.42,0.49,0.35
	c2.85-0.95,4.9-3.64,4.9-6.81C19.18,8.21,15.96,5,12,5z"/>
</svg>
