<?xml version="1.0" standalone="no"?>
<!DOCTYPE svg PUBLIC "-//W3C//DTD SVG 20010904//EN"
 "http://www.w3.org/TR/2001/REC-SVG-20010904/DTD/svg10.dtd">
<svg version="1.0" xmlns="http://www.w3.org/2000/svg"
 width="600.000000pt" height="600.000000pt" viewBox="0 0 600.000000 600.000000"
 preserveAspectRatio="xMidYMid meet">
<metadata>
Created by potrace 1.14, written by Peter Selinger 2001-2017
</metadata>
<g transform="translate(0.000000,600.000000) scale(0.100000,-0.100000)"
fill="#000000" stroke="none">
<path d="M80 5993 c0 -8 21 -31 644 -683 297 -311 671 -702 830 -870 160 -168
355 -371 434 -452 78 -81 142 -152 142 -157 0 -4 -7 -14 -15 -21 -13 -11 -30
1 -108 77 -50 49 -191 184 -312 300 -421 402 -1111 1060 -1320 1258 -115 110
-247 235 -292 279 l-83 79 1 -139 0 -139 127 -106 c100 -84 917 -780 1527
-1301 50 -42 158 -134 240 -203 197 -167 179 -148 163 -174 -7 -11 -17 -21
-21 -21 -5 0 -223 184 -485 408 -262 225 -718 615 -1012 867 l-535 458 -3 -63
c-2 -34 -2 -63 0 -64 2 -2 1104 -932 1403 -1186 444 -376 543 -460 560 -480
20 -23 -102 67 -1280 951 -363 272 -666 498 -673 503 -9 5 -12 -6 -12 -46 l0
-53 407 -295 c920 -667 1519 -1103 1535 -1117 14 -12 15 -20 6 -37 -6 -11 -12
-23 -14 -24 -2 -4 -445 317 -1717 1246 -114 84 -210 152 -213 152 -3 0 -3 -41
-2 -92 l3 -91 215 -150 c118 -83 341 -238 495 -345 154 -107 375 -261 490
-342 116 -80 316 -220 445 -310 129 -90 237 -164 238 -166 5 -4 -18 -74 -25
-74 -4 0 -288 174 -903 555 -226 140 -465 288 -842 521 l-118 73 0 -143 c0
-103 4 -146 13 -153 6 -6 165 -88 352 -184 349 -178 597 -305 867 -442 84 -43
256 -131 381 -195 l229 -115 -6 -36 c-3 -20 -9 -101 -12 -181 -7 -167 7 -277
56 -422 120 -357 403 -640 755 -751 150 -48 182 -52 375 -52 209 1 271 12 452
85 436 175 728 611 728 1089 0 449 -238 847 -633 1057 -280 148 -630 176 -930
73 -49 -17 -90 -29 -92 -27 -2 2 -40 242 -84 533 -68 443 -131 851 -194 1265
l-12 75 -106 3 -107 3 58 -283 c32 -156 82 -384 110 -508 158 -696 242 -1095
238 -1123 -5 -36 -35 -33 -43 5 -4 18 -64 229 -132 468 -278 972 -371 1298
-389 1368 l-18 72 -98 0 -98 0 41 -112 c22 -62 67 -187 99 -278 32 -91 84
-235 115 -320 31 -85 81 -222 110 -305 29 -82 99 -276 155 -430 195 -537 190
-522 175 -535 -7 -6 -16 -7 -19 -2 -5 8 -319 753 -467 1107 -32 77 -127 304
-212 505 l-154 365 -226 3 c-125 1 -227 0 -227 -3 0 -5 606 -995 710 -1160 21
-33 129 -208 240 -390 112 -181 222 -361 246 -400 44 -72 45 -78 14 -95 -16
-9 -99 105 -745 1020 l-727 1030 -234 0 c-129 0 -234 -2 -234 -5 0 -2 423
-473 940 -1046 517 -574 940 -1046 940 -1051 0 -5 -8 -12 -17 -15 -12 -5 -27
6 -52 34 -20 22 -169 181 -332 354 -162 173 -373 397 -469 499 -96 102 -307
327 -470 500 -163 173 -384 408 -491 523 l-194 207 -47 0 c-27 0 -48 -3 -48
-7z m2485 -2442 c62 -28 95 -73 95 -129 -1 -130 -88 -199 -240 -190 -73 4
-111 25 -131 72 -64 149 124 316 276 247z"/>
</g>
</svg>
